<?xml version="1.0" encoding="UTF-8" standalone="no"?>
<!-- Created with Inkscape (http://www.inkscape.org/) -->

<svg
   xmlns:osb="http://www.openswatchbook.org/uri/2009/osb"
   xmlns:dc="http://purl.org/dc/elements/1.1/"
   xmlns:cc="http://creativecommons.org/ns#"
   xmlns:rdf="http://www.w3.org/1999/02/22-rdf-syntax-ns#"
   xmlns:svg="http://www.w3.org/2000/svg"
   xmlns="http://www.w3.org/2000/svg"
   xmlns:sodipodi="http://sodipodi.sourceforge.net/DTD/sodipodi-0.dtd"
   xmlns:inkscape="http://www.inkscape.org/namespaces/inkscape"
   width="744.09448819"
   height="1052.3622047"
   id="svg2"
   version="1.1"
   inkscape:version="0.48.4 r9939"
   sodipodi:docname="blue.svg">
  <title
     id="title5474">BlueGnuPony</title>
  <defs
     id="defs4">
    <linearGradient
       id="linearGradient3941"
       osb:paint="solid">
      <stop
         style="stop-color:#000000;stop-opacity:1;"
         offset="0"
         id="stop3943" />
    </linearGradient>
  </defs>
  <sodipodi:namedview
     id="base"
     pagecolor="#ffffff"
     bordercolor="#666666"
     borderopacity="1.0"
     inkscape:pageopacity="0.0"
     inkscape:pageshadow="2"
     inkscape:zoom="0.34354507"
     inkscape:cx="61.797797"
     inkscape:cy="682.57231"
     inkscape:document-units="px"
     inkscape:current-layer="layer1"
     showgrid="false"
     inkscape:window-width="896"
     inkscape:window-height="1318"
     inkscape:window-x="1792"
     inkscape:window-y="12"
     inkscape:window-maximized="0" />
  <metadata
     id="metadata7">
    <rdf:RDF>
      <cc:Work
         rdf:about="">
        <dc:format>image/svg+xml</dc:format>
        <dc:type
           rdf:resource="http://purl.org/dc/dcmitype/StillImage" />
        <dc:title>BlueGnuPony</dc:title>
        <dc:creator>
          <cc:Agent>
            <dc:title>Tristan Trim</dc:title>
          </cc:Agent>
        </dc:creator>
        <dc:description>Copyright 2013 Tristan Trim

    This program is free software: you can redistribute it and/or modify
    it under the terms of the GNU General Public License as published by
    the Free Software Foundation, either version 3 of the License, or
    (at your option) any later version.

    This program is distributed in the hope that it will be useful,
    but WITHOUT ANY WARRANTY; without even the implied warranty of
    MERCHANTABILITY or FITNESS FOR A PARTICULAR PURPOSE.  See the
    GNU General Public License for more details.

    You should have received a copy of the GNU General Public License
    along with this program.  If not, see &lt;http://www.gnu.org/licenses/&gt;.</dc:description>
        <cc:license
           rdf:resource="" />
      </cc:Work>
    </rdf:RDF>
  </metadata>
  <g
     inkscape:label="Layer 1"
     inkscape:groupmode="layer"
     id="layer1">
    <path
       style="fill:#000000;fill-opacity:1;stroke:#000000;stroke-width:1px;stroke-linecap:butt;stroke-linejoin:miter;stroke-opacity:1"
       d="M 275.28125 181.71875 C 237.12139 236.27896 255.92082 256.76728 258.8125 275.625 C 236.33064 359.70062 342.02119 400.48548 382.84375 362.84375 C 387.19994 358.05499 385.03136 349.39382 389.84375 345.40625 C 403.28858 340.20465 403.74783 332.539 401.34375 326.28125 C 407.49614 316.0268 386.17459 313.93534 378.59375 307.75 C 378.19021 307.43023 377.81297 307.05916 377.4375 306.65625 C 393.15072 302.46794 394.76027 295.81139 397.25 285.15625 C 390.71198 280.025 383.82995 278.34173 373.125 279.09375 C 375.56326 271.60391 381.33903 265.90534 391.875 266.8125 C 378.19052 258.69674 354.81554 288.6184 377.5 309.75 C 386.54338 315.81677 406.22408 322.52342 394.78125 323.375 C 392.20742 323.78762 391.30275 325.88329 396.96875 327.75 C 408.46225 338.11479 383.81567 347.15835 372.21875 348.3125 C 359.99183 350.42481 346.398 347.55043 334.375 332.28125 C 334.71614 349.05272 338.48487 363.44018 354.9375 365.78125 C 369.45529 368.51261 379.73189 356.65772 379.6875 348.3125 C 383.33101 347.55538 386.42882 346.68241 389.0625 345.71875 L 387.96875 346.375 C 380.65253 351.29583 387.60663 356.41453 379.5 362.84375 C 343.00112 394.90199 236.91523 356.86891 265 275.375 C 258.20368 264.97529 240.99523 238.34689 275.8125 187.375 C 293.56814 204.77444 307.53185 224.93693 310.28125 253.25 C 311.82801 232.41076 303.82746 209.3973 275.28125 181.71875 z M 373.9375 281.4375 C 382.62232 281.27645 398.53946 282.00878 394.9375 290.28125 C 392.62901 296.74903 386.49357 307.62694 375.15625 303.40625 C 372.07938 297.748 370.77384 289.00575 372.46875 281.46875 C 372.9702 281.45223 373.36595 281.4481 373.9375 281.4375 z M 337.625 339.875 C 338.00275 339.8339 338.51205 339.98431 339.21875 340.375 C 349.26256 348.27076 360.87119 352.45736 377.6875 349.46875 C 376.20264 364.31268 341.92594 374.0026 336.75 343.71875 C 336.63175 341.80633 336.49175 339.9983 337.625 339.875 z "
       id="path3010" />
    <path
       style="fill:#000000;stroke:#000000;stroke-width:1px;stroke-linecap:butt;stroke-linejoin:miter;stroke-opacity:1;fill-opacity:1"
       d="m 291.2445,267.64865 c 14.04471,-23.23755 -3.01479,-41.08768 -10.80589,-64.0635 13.64504,57.06447 15.37229,43.93654 10.80589,64.0635 z"
       id="path3780"
       inkscape:connector-curvature="0"
       sodipodi:nodetypes="ccc" />
    <path
       style="fill:#000000;fill-opacity:1;stroke:#000000;stroke-width:1px;stroke-linecap:butt;stroke-linejoin:miter;stroke-opacity:1"
       d="m 389.32302,313.74001 c 15.9651,-19.78856 13.77568,-48.20478 -2.45869,-66.59586 16.76639,15.08156 19.62269,44.17195 7.18878,69.50669 z"
       id="path3806"
       inkscape:connector-curvature="0"
       sodipodi:nodetypes="cccc" />
    <path
       style="fill:#000000;fill-opacity:1;stroke:#000000;stroke-width:1px;stroke-linecap:butt;stroke-linejoin:miter;stroke-opacity:1"
       d="m 344.93292,274.08 c -33.74699,-12.08445 -46.26008,4.11665 -50.21176,13.82643 1.06483,-22.49975 29.52353,-25.00158 50.21176,-13.82643 z"
       id="path3808"
       inkscape:connector-curvature="0"
       sodipodi:nodetypes="ccc" />
    <path
       style="fill:#000000;fill-opacity:1;stroke:#000000;stroke-width:1px;stroke-linecap:butt;stroke-linejoin:miter;stroke-opacity:1"
       d="m 396.60008,260.61743 c 16.80474,16.28886 21.8138,-20.47242 48.75634,-32.38294 -8.92547,1.96026 -66.64266,-21.30555 -90.59947,-1.09156 l -6.1855,-3.27468 c 40.57411,-21.52203 61.55983,2.26601 103.69818,3.63853 -42.02592,15.24156 -29.15726,42.91378 -52.75872,40.75157 z"
       id="path3810"
       inkscape:connector-curvature="0"
       sodipodi:nodetypes="ccccccc" />
    <path
       style="fill:#000000;fill-opacity:1;stroke:#000000;stroke-width:1px;stroke-linecap:butt;stroke-linejoin:miter;stroke-opacity:1"
       d="M 342.03125 211.875 C 336.22602 223.1279 319.98246 220.14321 318 232.40625 L 308.46875 233.4375 L 308.46875 236.78125 L 319.28125 234.71875 C 314.13109 242.06711 318.70466 246.16472 319.03125 251.6875 C 322.25529 240.65775 324.7675 247.13747 326.5 237.8125 C 327.41615 248.20906 338.27863 244.81857 340.375 259.6875 C 341.65721 255.4768 343.01975 251.37722 342.96875 244.5 C 345.94178 258.26475 351.33886 261.05049 355.5625 269.1875 C 354.28102 261.51342 358.52737 256.97222 357.875 252.96875 C 361.89406 255.47924 366.88739 256.08287 371.53125 257.34375 C 365.59311 250.56565 363.81134 242.2319 353 237.28125 C 360.263 238.12107 365.23898 234.10941 368.6875 232.40625 C 352.96584 231.09041 354.06199 219.59829 341.625 223.75 C 344.85518 222.49187 340.72182 215.81537 342.03125 211.875 z M 340.03125 217.625 C 340.67845 217.84494 340.7903 220.37197 340.875 221.53125 C 337.12218 225.11363 336.45195 226.80293 342.71875 225.5 C 349.91472 222.36324 354.43538 230.56989 360.5625 232.59375 C 365.22139 233.49874 358.69539 235.03251 356.75 235.3125 C 354.31982 235.78545 344.57148 234.25726 348.8125 236.84375 C 355.97038 240.55748 362.29242 245.73969 365.9375 253.15625 C 366.48964 254.91641 360.64696 252.39971 358.6875 251.125 C 353.43933 246.54916 356.58536 252.28759 355.71875 255.5625 C 354.83286 257.34367 354.32376 261.9215 353.3125 261.9375 C 347.42117 255.47925 346.20003 246.72211 342.4375 239.1875 C 340.5933 243.38345 341.15511 247.92677 340.28125 252.3125 C 338.24276 246.4776 330.68588 245.11955 328.78125 239.375 C 328.05045 234.39086 326.62511 229.65441 324.5625 237.375 C 324.63505 240.71655 322.03071 242.51301 319.96875 244.625 C 318.81163 245.38508 318.56756 240.76349 319.1875 239.21875 C 319.82026 236.04685 326.65499 230.16408 320 232.53125 C 322.08471 223.11936 334.15951 223.735 340.03125 217.625 z "
       id="path3812" />
    <path
       style="fill:#000000;stroke:#000000;stroke-width:1px;stroke-linecap:butt;stroke-linejoin:miter;stroke-opacity:1;fill-opacity:1"
       d="M 324.3125 284.625 C 310.79643 285.10233 296.81489 291.93005 293.8125 304.4375 C 300.8449 309.06571 306.3459 313.40477 318.78125 313.6875 C 331.91741 314.25177 342.00325 305.25656 345.03125 299.03125 C 338.56775 293.94171 340.01855 285.60111 327 284.625 C 326.10642 284.60029 325.21357 284.59318 324.3125 284.625 z M 327.15625 287 C 334.19917 286.52574 338.23591 292.68498 341.28125 298.0625 C 344.18827 299.79597 341.36187 301.97611 339.84375 303.65625 C 328.40436 315.81066 308.69812 313.85112 296.5 303.96875 C 300.45927 292.46551 313.55355 287.40127 324.78125 287.03125 C 325.57281 287.01095 326.36424 286.9839 327.15625 287 z "
       id="path3854" />
    <path
       id="path3912"
       style="fill:#000000;fill-opacity:1;stroke:#000000;stroke-width:1px;stroke-linecap:butt;stroke-linejoin:miter;stroke-opacity:1"
       d="m 292.53804,203.49247 c 0,0 15.35871,-11.98646 28.74441,-1.09156 5.48922,4.46779 10.94631,0.46639 11.27945,0 9.10264,-10.54229 37.7764,-10.28441 49.8479,2.18312 17.48838,10.94447 58.45451,-5.58598 59.30809,-34.56607 -0.23024,-16.54595 -18.53858,-16.50325 -31.65523,-17.82881 8.23176,-14.11572 27.62658,-12.20724 36.02147,-7.27706 18.21495,12.00716 24.74407,31.29138 18.92037,48.75634 -3.33572,10.55095 -12.71393,25.89061 -27.15255,33.15612 l -5.18166,-1.38924 c 19.53877,-10.69839 36.43405,-28.22405 30.77836,-50.01314 -3.20697,-14.0125 -12.47956,-30.05137 -28.03125,-31.84375 -1.95211,-0.29616 -3.93441,-0.37105 -5.90625,-0.28125 -5.92188,0.27772 -11.95501,2.48844 -15.84375,7.21875 10.46995,0.91023 24.81783,1.81197 29.0625,13.375 2.97323,12.03859 -0.59405,20.84165 -7.89949,30.31011 -10.95644,13.45186 -31.12847,19.09841 -48.58041,14.33022 -6.76847,-2.38029 -11.22242,-8.84388 -18.65625,-9.96875 -11.8339,-3.10408 -26.26782,-2.73833 -35.21875,6.4375 -5.19197,3.33011 -11.15669,0.52609 -15.28125,-3.03125 -5.77099,-3.28862 -15.90691,1.54015 -21.69208,4.40864 z"
       inkscape:connector-curvature="0"
       sodipodi:nodetypes="cscccccccccccccccccccc" />
    <path
       id="path3919"
       style="fill:#000000;stroke:#000000;stroke-width:1px;stroke-linecap:butt;stroke-linejoin:miter;stroke-opacity:1;fill-opacity:1"
       d="m 254.33599,229.02349 c -9.85787,-1.16539 -13.41969,-14.35676 -13.36724,-22.58599 0.49442,-16.7977 5.071,-35.36698 18.28125,-46.625 2.01063,-1.5493 4.39673,-2.67116 6.78125,-3.375 -3.24331,-2.01252 -7.03477,-3.27281 -10.90625,-3.03125 -13.29147,1.66458 -21.29962,14.48593 -27.1875,25.34375 -8.59073,17.99155 -13.50019,38.78534 -9.90625,58.5625 2.4751,15.54427 21.61661,27.09014 39.21118,26.65287 l 1.21825,4.10127 c -27.03701,4.73815 -58.02627,-18.17046 -36.51018,-80.94757 7.15578,-18.42973 26.31872,-49.39364 49.48405,-29.10826 -26.84971,-2.48844 -39.37564,68.63235 -15.64569,65.67552 z"
       inkscape:connector-curvature="0"
       sodipodi:nodetypes="ccccccccccccc" />
    <path
       style="fill:#000000;fill-opacity:1"
       d="m 323.53125,283.84375 c -6.89154,0 -12.46875,5.60846 -12.46875,12.5 0,1.14948 0.17821,2.25594 0.46875,3.3125 0.33548,-6.05324 7.2098,-10.92114 7,-4.75 -0.12044,3.54248 1.09082,7.4859 5.65625,8.25 5.15541,0.86285 -0.0358,5.43824 -5.65625,4.625 1.53277,0.67236 3.21766,1.03125 5,1.03125 6.89154,0 12.46875,-5.57721 12.46875,-12.46875 0,-6.89154 -5.57721,-12.5 -12.46875,-12.5 z m 2.0625,2.375 c 0.29155,-0.0237 0.59264,-0.0151 0.90625,0 1.15796,0.0558 2.55668,0.17204 3.84375,0.96875 8.00771,4.95681 1.85812,18.46912 -6.15625,11.34375 -5.72876,-5.09329 -2.96699,-11.9576 1.40625,-12.3125 z"
       id="path3931"
       inkscape:connector-curvature="0"
       sodipodi:nodetypes="sscsscssssssss" />
    <path
       sodipodi:type="arc"
       style="fill:none;fill-opacity:1"
       id="path3939"
       sodipodi:cx="376.91977"
       sodipodi:cy="289.38907"
       sodipodi:rx="7.2039275"
       sodipodi:ry="9.3908339"
       d="m 384.1237,289.38907 a 7.2039275,9.3908339 0 1 1 -14.40786,0 7.2039275,9.3908339 0 1 1 14.40786,0 z" />
    <path
       style="fill:#000000;fill-opacity:1"
       d="m 377.4375,280.78125 c -0.26477,0 -0.52486,0.0233 -0.78125,0.0625 1.75206,0.40073 3.09375,2.85503 3.09375,5.84375 0,3.26815 -1.60444,5.90625 -3.59375,5.90625 -1.98931,0 -3.625,-2.6381 -3.625,-5.90625 0,-1.82835 0.51947,-3.44578 1.3125,-4.53125 C 372.13281,283.61267 371,286.07753 371,288.875 c 0,4.47595 2.88516,8.09375 6.4375,8.09375 1.43229,0 2.74251,-0.59836 3.8125,-1.59375 -0.70344,-0.2639 -1.25,-1.4136 -1.25,-2.78125 0,-1.56303 0.70994,-3.26732 1.5625,-3.26732 0.85256,0 1.53125,1.70429 1.53125,3.26732 0,0.0513 0.001,0.10565 0,0.15625 0.49582,-1.14691 0.78125,-2.47627 0.78125,-3.875 0,-4.47595 -2.88516,-8.09375 -6.4375,-8.09375 z"
       id="path5398"
       inkscape:connector-curvature="0"
       sodipodi:nodetypes="scssscsscssscss" />
    <path
       style="fill:#000000;fill-opacity:1;stroke:#000000;stroke-width:1px;stroke-linecap:butt;stroke-linejoin:miter;stroke-opacity:1"
       d="m 370.4877,328.36747 c 0.36124,-4.68426 -7.66668,-1.97837 -7.71849,-0.51457 -0.0899,2.53988 7.48354,3.56119 7.71849,0.51457 z"
       id="path5406"
       inkscape:connector-curvature="0"
       sodipodi:nodetypes="sss" />
    <path
       id="path5410"
       style="fill:#000000;fill-opacity:1;stroke:#000000;stroke-width:1px;stroke-linecap:butt;stroke-linejoin:miter;stroke-opacity:1"
       d="m 273.74925,342.77532 c 1.51155,27.91533 -3.48439,41.31641 -20.06809,50.42749 -25.36058,13.9331 -31.38854,31.38855 -31.38854,31.38855 -4.16239,17.02655 -3.77845,32.85145 -7.97578,44.2527 l 9.14048,-0.15072 c -3.07974,-11.40125 -0.23314,-26.34772 3.92925,-43.37427 0,0 6.02796,-17.45545 31.38854,-31.38855 16.5837,-9.11108 15.03028,-18.14592 19.70423,-46.06125 z"
       inkscape:connector-curvature="0"
       sodipodi:nodetypes="csccccscc" />
    <path
       style="fill:#000000;fill-opacity:1;stroke:#000000;stroke-width:1px;stroke-linecap:butt;stroke-linejoin:miter;stroke-opacity:1"
       d="m 314.75,396.4375 c -11.87859,0.3049 -25.55575,6.06586 -39.3125,19.53125 -13.97577,13.67976 -21.98269,35.57175 -23.28125,53.875 26.48439,-0.70059 25.27608,-0.96511 25.27608,-0.96511 0,0 -2.29116,16.92891 -0.52608,19.87136 15.53282,25.8938 42.20746,40.58536 70.21875,16.375 11.46904,-9.91277 2.35279,-43.76883 4.34375,-66.21875 C 353.57164,415.19426 337.4273,395.85541 314.75,396.4375 z m 1.6875,1.96875 c 11.71244,0.14902 22.75475,6.76425 28.40625,17.09375 7.5971,12.30633 2.17725,27.26475 3.56469,40.9375 0.20339,14.64962 5.41927,30.29196 -0.31469,44.28125 -6.13333,7.82324 -16.08007,12.9829 -25.71875,14.4375 -18.9663,2.49615 -34.89395,-12.20642 -43.75,-27.4375 -0.69404,-7.02476 0.96584,-14.06495 2.5625,-20.96875 7.13525,-30.85217 7.09808,-31.18236 -4.08955,0.16856 -7.5766,0.33079 -15.16513,0.74263 -22.7542,0.86269 1.27461,-12.53863 6.64673,-25.2161 12.92416,-36.2701 10.20899,-17.1291 26.51343,-31.52229 46.82584,-33.0424 0.78545,-0.0483 1.56292,-0.0724 2.34375,-0.0625 z"
       id="path5413"
       inkscape:connector-curvature="0"
       sodipodi:nodetypes="ssccssssscccccsccccs" />
    <path
       style="fill:#000000;fill-opacity:1;stroke:#000000;stroke-width:1px;stroke-linecap:butt;stroke-linejoin:miter;stroke-opacity:1"
       d="m 435.8125,388.875 c -31.69988,3.42031 -48.05285,19.34698 -85.5,50.5 l 0.125,4.9375 c 25.68053,-21.80897 53.13887,-52.89102 83.3125,-53.125 31.88057,2.86182 29.46782,32.02975 31.96875,58.03125 3.51223,24.36223 11.08622,39.38319 -25.28125,47.46875 -25.75094,1.50497 -45.70479,-20.83661 -42.45207,-34.32614 7.13525,-30.85217 7.60845,-33.99353 -3.57918,-2.64261 -5.80691,0.25353 -29.32858,0.99442 -43.53125,1.375 l 0.0625,1.9375 c 22.9154,-0.67335 43.55005,-1.5 43.55005,-1.5 0,0 -1.41252,7.22261 0.35256,10.16506 15.53282,25.8938 42.3361,39.1703 70.34739,14.95994 11.46904,-9.91277 1.80217,-42.25536 1.0625,-64.78125 -0.41633,-12.67884 -12.09531,-33.34415 -30.4375,-33 z"
       id="path5422"
       inkscape:connector-curvature="0"
       sodipodi:nodetypes="cccccccccccsssc" />
    <path
       style="fill:#000000;fill-opacity:1;stroke:#000000;stroke-width:1px;stroke-linecap:butt;stroke-linejoin:miter;stroke-opacity:1"
       d="m 368.58338,426.53453 c -13.56296,-34.56606 -18.17795,-25.83358 -15.64569,-51.30331 l -6.18551,0 c 4.2703,23.391 16.58878,36.92902 17.10111,55.3057 z"
       id="path5427"
       inkscape:connector-curvature="0"
       sodipodi:nodetypes="ccccc" />
    <path
       style="fill:#ff0000;fill-opacity:1"
       d="m 355.60932,362.94274 c -6.98018,-0.58819 -12.57078,-4.48452 -15.7246,-10.95913 -1.10179,-2.26191 -1.97398,-4.95722 -2.46644,-7.62201 -0.27001,-1.4611 -0.27327,-3.22486 -0.007,-3.73994 0.0831,-0.16065 0.13114,-0.18363 0.38416,-0.18363 0.44901,0 1.02563,0.30407 2.0392,1.07531 10.24032,7.79205 21.24385,10.65396 34.55626,8.98773 0.70753,-0.0886 1.55384,-0.20367 1.88069,-0.25581 0.81588,-0.13014 0.79271,-0.13369 0.74616,0.11425 -0.11473,0.61108 -0.5275,1.78701 -0.88695,2.52677 -1.70988,3.51913 -5.26083,6.5258 -9.90864,8.3899 -3.34549,1.34178 -7.22942,1.95168 -10.61293,1.66656 z"
       id="path5437"
       inkscape:connector-curvature="0" />
    <path
       style="fill:#0084ff;fill-opacity:1"
       d="m 335.05974,372.72213 c -20.48927,-2.33112 -40.32424,-11.57607 -53.88404,-25.11499 -17.83519,-17.80771 -23.87099,-40.38132 -17.32391,-64.79062 2.02676,-7.55634 2.01839,-7.65582 -1.10297,-13.09872 -3.7342,-6.51154 -5.6472,-12.33897 -6.71479,-20.45476 -1.97917,-15.04558 4.55774,-36.55064 16.92817,-55.6901 l 2.98864,-4.62399 5.61075,5.98415 c 14.5671,15.53655 24.30352,34.6582 27.05566,53.13543 0.58179,3.90599 1.07469,5.27588 1.89833,5.27588 0.9601,0 1.04604,-1.09429 0.62735,-7.98793 l -0.48515,-7.98792 2.01309,-0.44834 c 1.1072,-0.24659 2.63569,-0.61943 3.39665,-0.82853 1.07282,-0.2948 1.27643,-0.10098 0.90653,0.86294 -1.19965,3.12625 -1.16947,4.77913 0.19124,10.47467 0.80049,3.35063 1.5971,6.23373 1.77025,6.40688 0.17315,0.17314 0.83394,-1.20874 1.46843,-3.07085 0.63449,-1.86211 2.22416,-4.58147 3.5326,-6.04302 l 2.37899,-2.65736 5.60571,5.48021 c 4.52115,4.41994 5.78341,6.14464 6.5242,8.91441 0.50519,1.88881 1.32911,3.43419 1.83095,3.43419 0.87048,0 3.15131,-6.28186 3.15252,-8.68263 3.1e-4,-0.62777 0.93096,0.8234 2.06808,3.22484 2.77898,5.86875 9.50157,15.77674 10.34914,15.25292 0.37451,-0.23146 0.68092,-1.77176 0.68092,-3.4229 0,-1.65113 0.53904,-4.92317 1.19786,-7.27119 0.95014,-3.38628 1.43922,-4.17284 2.36505,-3.80355 2.1813,0.87008 12.5562,3.38011 12.83186,3.10444 0.54902,-0.54901 -10.63142,-15.5677 -13.29357,-17.85725 -1.52193,-1.30892 -2.26703,-2.35903 -1.67811,-2.36505 1.43736,-0.0147 12.40334,-5.19968 12.40334,-5.8646 0,-0.29168 -1.52068,-0.75837 -3.37927,-1.03708 -4.00903,-0.60119 -9.84486,-3.28008 -9.49113,-4.35682 0.4666,-1.42036 8.12101,-4.64859 13.74935,-5.79876 10.89524,-2.22648 25.85218,-1.17999 47.44919,3.31985 6.03897,1.25825 13.59509,2.82777 16.79138,3.48782 l 5.81144,1.20009 -3.45745,2.37879 c -5.1462,3.54067 -10.35292,8.9195 -18.12559,18.72472 -8.49599,10.71769 -11.55421,13.4049 -15.25568,13.4049 -3.20757,0 -6.57111,-2.53198 -8.58025,-6.45897 -1.96164,-3.83413 -7.2738,-10.27828 -8.47279,-10.27828 -1.55591,0 -1.25859,0.97122 1.25031,4.08425 2.95683,3.66878 7.57505,13.31863 8.95537,18.71237 3.45253,13.49107 1.25684,28.1862 -5.8076,38.86863 l -2.52131,3.81258 -4.72789,-2.33143 c -2.60034,-1.28229 -4.7279,-2.51175 -4.7279,-2.73214 0,-0.22039 1.67302,-0.99491 3.71781,-1.72116 3.90809,-1.38803 9.55956,-6.02683 11.17347,-9.17131 0.52421,-1.02136 1.53882,-3.95428 2.25469,-6.5176 l 1.30158,-4.6606 -2.12864,-1.71223 c -3.27232,-2.63219 -9.40374,-4.62962 -15.70227,-5.11533 -3.14082,-0.2422 -5.71058,-0.67017 -5.71058,-0.95103 0,-0.28087 0.95297,-1.82621 2.11773,-3.4341 2.62581,-3.62483 7.38459,-6.02741 11.93844,-6.02741 3.67704,0 4.84051,-1.63063 1.84242,-2.58219 -7.51879,-2.38637 -15.92993,2.75994 -20.83527,12.74794 -1.75017,3.56362 -1.97653,4.85793 -1.97653,11.30159 0,6.57917 0.20515,7.69491 2.13918,11.63402 3.16112,6.43839 7.48701,10.22959 17.71743,15.52751 4.88829,2.53145 8.8878,4.86466 8.8878,5.18491 0,0.32026 -0.98241,0.77876 -2.18312,1.01891 -3.11039,0.62208 -2.92691,2.99407 0.38265,4.94676 3.8586,2.27663 5.16452,5.98129 3.05081,8.65458 -3.30415,4.17885 -12.96985,8.69873 -22.44641,10.49641 -15.28526,2.89956 -24.8551,0.051 -35.88868,-10.68259 -3.17979,-3.09334 -5.87909,-5.52659 -5.99845,-5.40723 -0.11936,0.11937 0.093,3.46673 0.47201,7.43858 1.19552,12.52996 4.53183,20.22905 10.62036,24.50823 5.13111,3.60627 14.53987,5.17617 20.72456,3.45799 6.61345,-1.83729 13.08314,-8.15177 14.6247,-14.27383 0.54175,-2.15149 1.2377,-3.18796 2.33896,-3.48341 2.45161,-0.65771 2.75881,-0.53233 2.04098,0.83303 -0.36824,0.70041 -0.90837,3.04126 -1.20029,5.20188 -0.45158,3.34227 -0.99853,4.38302 -3.6658,6.9753 -4.10327,3.98792 -11.95975,8.06235 -19.03895,9.87374 -6.46439,1.65407 -17.82207,2.30503 -25.32454,1.45146 l 0,0 z m 34.6139,-42.26643 c 1.88105,-1.00671 1.82667,-4.06514 -0.0905,-5.09119 -1.75261,-0.93797 -5.34031,-0.31186 -6.8471,1.19493 -2.73567,2.73566 3.04259,5.98081 6.93762,3.89626 l 0,0 z m -36.84297,-19.165 c 3.71537,-1.83623 6.51163,-3.90317 9.07537,-6.70831 4.07174,-4.45513 4.47191,-5.92867 2.17461,-8.0077 -0.84196,-0.76196 -2.3433,-2.77175 -3.33631,-4.46619 -3.49104,-5.95703 -7.879,-8.22914 -16.10569,-8.33964 -4.46842,-0.06 -13.8864,2.23987 -18.19466,4.44318 -6.24385,3.19319 -13.22738,11.59719 -13.22738,15.91786 0,0.91437 1.70199,2.31857 5.27587,4.35278 9.00144,5.1235 12.50357,6.02064 22.21602,5.69109 6.05787,-0.20554 7.30446,-0.50202 12.12217,-2.88307 z m -36.25623,-25.36028 c 2.24307,-4.33764 8.81329,-10.46299 13.58929,-12.66917 4.24708,-1.96186 5.06989,-2.0843 13.61656,-2.02621 7.5294,0.0512 10.13409,0.37813 15.12072,1.89803 3.41995,1.04238 6.2042,1.54527 6.44031,1.16324 0.53378,-0.86368 0.66018,-0.77876 -4.45993,-2.99666 -12.225,-5.29557 -27.08073,-5.79604 -36.01738,-1.21337 -3.99874,2.05054 -7.85251,6.40632 -9.45324,10.68467 -2.41035,6.44223 -1.5264,10.36148 1.16367,5.15947 l 0,0 z m -2.30792,-22.43582 c 5.48335,-12.21853 4.13332,-21.66664 -6.39382,-44.74674 -2.54811,-5.58657 -5.03328,-11.38541 -5.5226,-12.88631 -0.87529,-2.68482 -3.46289,-4.09043 -2.67927,-1.45541 0.20829,0.70042 1.22978,4.7119 2.26998,8.9144 1.0402,4.20251 3.83905,14.70846 6.21968,23.34656 4.61762,16.75499 4.89607,18.9623 3.25141,25.77364 -1.3157,5.44895 -1.31589,5.4578 -0.11393,5.4578 0.5457,0 1.88155,-1.98178 2.96855,-4.40394 z"
       id="path5439"
       inkscape:connector-curvature="0" />
    <path
       style="fill:#be5500;fill-opacity:1"
       d="m 351.73282,258.24437 c -0.83576,-1.29415 -3.0913,-6.28261 -5.0123,-11.08547 -1.92101,-4.80286 -3.74986,-9.01836 -4.06412,-9.36777 -0.58703,-0.65268 -1.69135,2.67042 -2.67392,8.04627 l -0.5565,3.04475 -4.54789,-4.02335 c -3.79284,-3.35539 -4.73708,-4.67415 -5.68745,-7.94331 -0.62676,-2.15598 -1.49524,-4.13978 -1.92994,-4.40845 -1.02895,-0.63592 -2.59891,1.55419 -3.49223,4.8717 -0.72893,2.70706 -3.25959,5.65976 -4.11642,4.80293 -0.26443,-0.26443 0.55625,-2.49154 1.82373,-4.94913 2.60869,-5.05815 2.74891,-5.71933 1.21295,-5.71933 -3.59553,0 1.88365,-4.67992 10.17365,-8.6896 3.8101,-1.84286 6.92745,-3.05439 6.92745,-2.69229 0,0.36209 -0.66562,1.73535 -1.47915,3.05168 -0.84091,1.36062 -1.18057,2.57785 -0.78718,2.82098 0.38059,0.23522 3.09288,0.34301 6.02732,0.23955 5.31775,-0.1875 5.35125,-0.17672 10.15785,3.26849 2.65238,1.90113 5.27212,3.47962 5.82165,3.50775 0.54953,0.0281 0.34421,0.33258 -0.45626,0.67656 -0.80048,0.34397 -3.82956,0.64843 -6.73129,0.67656 -6.57598,0.0637 -6.92508,1.19276 -1.45541,4.70691 5.2846,3.39525 10.30144,7.95403 12.09091,10.98696 0.82748,1.40247 1.29642,2.54994 1.0421,2.54994 -0.25431,0 -2.1714,-0.9645 -4.26019,-2.14334 -2.08878,-1.17884 -3.9982,-1.94293 -4.24315,-1.69798 -0.24495,0.24494 -0.47053,1.78252 -0.50128,3.41682 -0.0308,1.63431 -0.4401,4.19405 -0.90964,5.68832 l -0.85371,2.71684 -1.51958,-2.35299 z"
       id="path5441"
       inkscape:connector-curvature="0" />
    <path
       style="fill:#575533;fill-opacity:1"
       d="m 307.77384,227.3289 c -1.7487,-5.20984 -6.54823,-15.26263 -8.82627,-18.48693 -0.75059,-1.06238 -1.36472,-2.09183 -1.36472,-2.28766 0,-0.19584 2.21041,-1.26264 4.91202,-2.37067 6.70938,-2.75178 11.88805,-2.82292 15.82762,-0.21743 6.35577,4.20348 11.60031,4.3956 15.94151,0.58397 4.76273,-4.18173 10.18594,-6.06268 18.40606,-6.38384 10.49137,-0.4099 16.74088,1.08702 23.81321,5.70389 7.96795,5.20153 9.01476,5.63612 15.89397,6.59847 17.56007,2.45653 35.96835,-5.06199 45.01667,-18.38623 5.63195,-8.29342 6.75683,-11.64612 6.79124,-20.2412 0.0271,-6.75856 -0.16446,-7.9546 -1.65837,-10.35729 -3.92672,-6.31543 -9.66758,-9.32803 -20.79527,-10.91261 l -5.74697,-0.81836 2.10843,-1.70652 c 5.64371,-4.56787 16.49917,-5.02272 24.60739,-1.03106 14.04085,6.91229 24.07986,29.72293 19.74978,44.87543 -2.87737,10.06896 -11.40486,20.43017 -23.36288,28.38676 l -6.28907,4.1846 -17.94169,-4.4738 c -9.86794,-2.46058 -20.23398,-4.79724 -23.03565,-5.19257 -12.04831,-1.70006 -23.9842,-0.15145 -35.72459,4.63506 -3.86021,1.57379 -7.65335,2.62211 -9.48762,2.62211 l -3.0561,0 -0.51144,-5.4578 c -0.28129,-3.00179 -0.6659,-5.4578 -0.8547,-5.4578 -0.1888,0 -1.70579,1.39174 -3.37111,3.09276 -1.86287,1.90281 -5.54773,4.30782 -9.5772,6.25082 -7.07386,3.41099 -9.96885,5.685 -11.28616,8.86529 -0.88132,2.12768 -2.48884,2.86814 -6.26252,2.88469 -2.15285,0.009 -2.34974,-0.23706 -3.91557,-4.90208 l 0,0 z"
       id="path5443"
       inkscape:connector-curvature="0" />
    <path
       style="fill:#575533;fill-opacity:1"
       d="m 245.91568,261.64054 c -13.45377,-3.59092 -24.21881,-13.00853 -26.60539,-23.27525 -4.21925,-18.1506 0.92184,-44.69991 12.45935,-64.34182 4.13007,-7.0312 11.62028,-15.0795 16.19701,-17.40385 4.03894,-2.05122 9.34649,-2.67748 12.86113,-1.51755 l 2.74145,0.90476 -3.35022,2.08523 c -14.00203,8.71509 -23.92482,40.68099 -18.36388,59.15859 1.36739,4.54347 4.27485,8.87778 7.11303,10.60378 l 2.26652,1.37835 0.14323,11.51003 c 0.11295,9.07696 0.45839,12.62529 1.63418,16.78591 l 1.49095,5.27587 -2.29249,-0.0479 c -1.26086,-0.0263 -4.09355,-0.52862 -6.29487,-1.11617 z"
       id="path5445"
       inkscape:connector-curvature="0" />
    <path
       style="fill:#0084ff;fill-opacity:1"
       d="m 237.18321,468.20291 c -6.60394,-0.34558 -12.53818,0.70844 -12.7508,0.1619 -3.09206,-7.9484 -0.89158,-21.31439 1.44262,-32.36605 2.34824,-11.11813 3.97951,-14.80322 9.66397,-21.8312 5.3244,-6.58282 11.77814,-11.966 22.11022,-18.44256 13.59587,-8.52243 15.86781,-12.13156 18.8534,-29.94993 0.80475,-4.80286 1.64202,-9.61508 1.86059,-10.69383 l 0.39741,-1.96134 6.68222,5.08378 c 15.46019,11.762 37.74712,19.55827 55.95629,19.57426 l 4.88396,0.004 0.7967,3.09276 c 1.48317,5.75771 2.34381,8.16163 7.73757,21.61265 5.57888,13.91265 7.56626,20.23195 7.48247,23.79211 -0.0386,1.64064 -1.02374,2.88232 -4.6798,5.89855 -2.54698,2.10125 -4.81725,3.82046 -5.04503,3.82046 -0.22779,0 -0.41804,-1.88295 -0.42279,-4.18432 -0.0313,-15.18081 -10.46883,-29.51611 -25.01509,-34.35679 -5.87167,-1.95397 -15.53093,-2.13139 -22.27931,-0.40923 -13.44497,3.4311 -29.51789,15.33866 -38.33266,28.39859 -6.78523,10.05297 -12.49327,24.68445 -14.17938,36.34612 -0.70031,4.84364 -1.1502,6.20078 -2.0277,6.11684 -0.62024,-0.0593 -4.60131,0.63851 -11.20524,0.29294 z"
       id="path5449"
       inkscape:connector-curvature="0"
       sodipodi:nodetypes="csssssscsccssssssssssccc" />
    <path
       style="fill:#0084ff;fill-opacity:1"
       d="m 310.84695,513.5381 c -9.64693,-2.33618 -21.08511,-11.04446 -28.21735,-21.48286 l -3.45415,-5.05532 0.40672,-5.30672 c 0.2237,-2.9187 1.90935,-12.08158 3.7459,-20.36194 3.46312,-15.61402 3.8197,-18.05544 2.63708,-18.05544 -1.03862,0 -2.08671,2.26235 -5.89628,12.72748 -2.85424,7.84075 -3.73295,9.53477 -5.15263,9.93343 -0.94136,0.26434 -5.71485,0.51327 -10.60777,0.55316 l -8.89621,0.0725 0.41079,-2.36505 c 1.82062,-10.48191 8.59886,-27.02078 14.8418,-36.21391 4.21503,-6.20691 13.23016,-15.53827 18.42011,-19.06626 9.84522,-6.69251 19.14138,-9.63399 28.96295,-9.16441 5.48002,0.262 7.0542,0.66063 11.72515,2.96914 6.69647,3.30957 12.10747,8.82498 15.32798,15.62373 l 2.32971,4.91822 0.0848,18.19266 c 0.0539,11.55623 0.55062,22.70501 1.36184,30.56249 1.30353,12.62606 1.19029,18.39059 -0.48422,24.65142 -1.76145,6.58588 -11.75055,13.90151 -22.89863,16.77008 -5.25191,1.35139 -9.35706,1.37873 -14.64756,0.0976 l 0,0 z"
       id="path5451"
       inkscape:connector-curvature="0" />
    <path
       style="fill:#0084ff;fill-opacity:1"
       d="m 427.84233,494.52377 c -11.44043,-3.00458 -22.58993,-11.63829 -26.96068,-20.87722 -2.75694,-5.82763 -2.71848,-7.93173 0.39939,-21.84918 1.40083,-6.25301 2.53608,-12.44762 2.52276,-13.76579 l -0.0242,-2.39668 -1.36466,1.63578 c -0.75056,0.89968 -2.93079,5.91554 -4.84494,11.14635 -1.91416,5.23081 -3.99078,9.77405 -4.61471,10.09609 -0.62394,0.32204 -9.84968,0.81599 -20.50165,1.09766 -17.64971,0.46671 -19.40826,0.40518 -19.83,-0.69387 -0.25453,-0.6633 -0.46279,-4.28351 -0.46279,-8.04492 l 0,-6.83892 13.6445,-12.1467 c 28.89067,-25.71924 41.78895,-34.34928 57.1394,-38.23108 11.03913,-2.79156 21.74548,-0.71075 28.75105,5.58785 7.22196,6.49317 10.26252,15.96116 12.15429,37.84717 0.62271,7.2043 1.78109,17.11732 2.57416,22.02894 2.39527,14.83424 1.82208,20.31862 -2.67229,25.56929 -3.17065,3.70419 -7.37143,6.10324 -15.39231,8.79048 -7.42468,2.48749 -13.78973,2.81161 -20.51731,1.04475 l 0,0 z"
       id="path5453"
       inkscape:connector-curvature="0" />
  </g>
</svg>
